<?xml version="1.0" encoding="UTF-8"?>
<!DOCTYPE svg PUBLIC "-//W3C//DTD SVG 1.1//EN" "http://www.w3.org/Graphics/SVG/1.1/DTD/svg11.dtd">
<!-- Creator: CorelDRAW 2021 (64-Bit) -->
<svg xmlns="http://www.w3.org/2000/svg" xml:space="preserve" width="2362px" height="2362px" version="1.1" style="shape-rendering:geometricPrecision; text-rendering:geometricPrecision; image-rendering:optimizeQuality; fill-rule:evenodd; clip-rule:evenodd"
viewBox="0 0 2362 2362"
 xmlns:xlink="http://www.w3.org/1999/xlink"
 xmlns:xodm="http://www.corel.com/coreldraw/odm/2003">
 <defs>
  <style type="text/css">
   <![CDATA[
    .str0 {stroke:#FEFEFE;stroke-width:16.67;stroke-linecap:round;stroke-linejoin:round;stroke-miterlimit:22.9256}
    .str1 {stroke:#0C8D8F;stroke-width:41.66;stroke-linecap:round;stroke-linejoin:round;stroke-miterlimit:22.9256}
    .fil1 {fill:none}
    .fil0 {fill:#0C8D8F}
    .fil2 {fill:#5C5C5C;fill-rule:nonzero}
   ]]>
  </style>
 </defs>
 <g id="Capa_x0020_1">
  <metadata id="CorelCorpID_0Corel-Layer"/>
  <polygon class="fil0 str0" points="1180.11,381.61 1332.99,819.85 1629.65,974.44 1334.7,1129.03 1178.39,1565.01 1025.71,1129.03 730.57,974.44 1025.51,819.85 "/>
  <line class="fil1 str0" x1="1180.11" y1="381.61" x2="1178.39" y2= "1565.01" />
  <line class="fil1 str0" x1="730.57" y1="974.44" x2="1629.65" y2= "974.44" />
  <line class="fil1 str0" x1="1332.99" y1="819.85" x2="1025.71" y2= "1129.03" />
  <line class="fil1 str0" x1="1025.51" y1="819.85" x2="1334.7" y2= "1129.03" />
  <polygon class="fil1 str1" points="1180.11,156.65 1391.11,761.5 1800.55,974.87 1393.47,1188.23 1177.74,1789.96 967.02,1188.23 559.66,974.87 966.74,761.5 "/>
  <line class="fil1 str1" x1="1464.26" y1="1257.84" x2="1675.34" y2= "1468.92" />
  <line class="fil1 str1" x1="679.95" y1="1472.59" x2="891.03" y2= "1261.51" />
  <line class="fil1 str1" x1="682.14" y1="475.09" x2="893.22" y2= "686.17" />
  <line class="fil1 str1" x1="1676.62" y1="475.35" x2="1465.54" y2= "686.43" />
  <path class="fil2" d="M453.14 2007.63c0,3.86 -0.67,7.58 -2.01,11.14 -1.33,3.57 -3.19,6.73 -5.57,9.47 -2.38,2.75 -5.2,4.94 -8.47,6.58 -3.27,1.63 -6.84,2.45 -10.7,2.45l-187.23 0 0 -53.49 160.48 0 0 -8.92 -160.48 0 0 -86.26c0,-3.71 0.67,-7.35 2.01,-10.92 1.34,-3.57 3.19,-6.72 5.57,-9.47 2.38,-2.75 5.2,-4.98 8.47,-6.69 3.27,-1.71 6.84,-2.56 10.7,-2.56l187.23 0 0 53.49 -160.48 0 0 8.92 160.48 0 0 86.26zm208.18 -95.18l-71.32 0 0 124.82 -53.5 0 0 -124.82 -71.32 0 0 -53.49 196.14 0 0 53.49zm160.71 124.82l-106.99 0 35.66 -53.49 17.83 0 0 -48.37 -71.32 101.86 -71.33 0 124.82 -178.31 71.33 0 0 178.31zm142.87 0l-21.4 -35.66 -32.09 0 0 -53.5 71.32 0 0 -35.66 -89.15 0 0 124.82 -53.5 0 0 -178.31 169.4 0c1.63,0 3.94,0.33 6.91,1 2.97,0.67 5.94,1.89 8.91,3.68 2.98,1.78 5.54,4.16 7.69,7.13 2.16,2.97 3.24,6.76 3.24,11.37l0 89.82c0,3.57 -0.26,7.03 -0.78,10.37 -0.52,3.34 -1.56,6.35 -3.12,9.02 -1.57,2.68 -3.76,4.87 -6.58,6.58 -2.82,1.71 -6.54,2.79 -11.14,3.23l21.62 36.11 -71.33 0zm285.3 0l-169.39 0c-3.87,0 -7.43,-0.82 -10.7,-2.45 -3.27,-1.64 -6.1,-3.83 -8.47,-6.58 -2.38,-2.74 -4.24,-5.9 -5.58,-9.47 -1.33,-3.56 -2,-7.28 -2,-11.14l0 -119.03c0,-3.71 0.67,-7.35 2,-10.92 1.34,-3.57 3.2,-6.72 5.58,-9.47 2.37,-2.75 5.2,-4.98 8.47,-6.69 3.27,-1.71 6.83,-2.56 10.7,-2.56l169.39 0 0 53.49 -142.65 0 0 71.33 89.16 0 0 -35.67 53.49 0 0 89.16zm201.05 0l-106.99 0 35.67 -53.49 17.83 0 0 -48.37 -71.33 101.86 -71.32 0 124.82 -178.31 71.32 0 0 178.31zm232.03 0l-213.97 0 0 -53.49 106.98 -71.33 -106.98 0 0 -53.49 213.97 0 0 53.49 -106.99 71.33 106.99 0 0 53.49zm228.47 0l-213.98 0 0 -178.31 213.98 0 0 53.49 -160.49 0 0 17.83 160.49 0 0 35.67 -160.49 0 0 17.83 160.49 0 0 53.49zm137.97 0l-21.4 -35.66 -32.1 0 0 -53.5 71.33 0 0 -35.66 -89.16 0 0 124.82 -53.49 0 0 -178.31 169.4 0c1.63,0 3.93,0.33 6.91,1 2.97,0.67 5.94,1.89 8.91,3.68 2.97,1.78 5.54,4.16 7.69,7.13 2.16,2.97 3.23,6.76 3.23,11.37l0 89.82c0,3.57 -0.26,7.03 -0.78,10.37 -0.52,3.34 -1.56,6.35 -3.12,9.02 -1.56,2.68 -3.75,4.87 -6.57,6.58 -2.83,1.71 -6.54,2.79 -11.15,3.23l21.62 36.11 -71.32 0z"/>
  <path class="fil2" d="M768.2 2117.74l0 24.77c-1.87,-0.54 -3.32,-0.83 -4.32,-0.83 -1.95,0 -3.64,0.72 -5.03,2.17 -1.41,1.44 -2.1,3.17 -2.1,5.21 0,1.73 0.76,3.92 2.3,6.59l1.97 3.43c3.58,6.18 5.36,12.14 5.36,17.91 0,8.42 -3,15.56 -9,21.39 -6.01,5.83 -13.34,8.76 -22,8.76 -4.16,0 -8.26,-0.97 -12.34,-2.91l0 -25.11c2.45,1.58 4.64,2.39 6.55,2.39 2.26,0 4.12,-0.66 5.64,-1.93 1.5,-1.31 2.26,-2.93 2.26,-4.89 0,-1.25 -1.2,-4.03 -3.6,-8.3 -3.84,-6.79 -5.77,-13.56 -5.77,-20.35 0,-8.17 2.9,-15.22 8.74,-21.12 5.81,-5.92 12.77,-8.87 20.86,-8.87 3.56,0 7.05,0.56 10.48,1.69zm148.41 25.38l0 61.81 -25.76 0 0 -61.81 -19.78 0 0 -24.99 65.19 0 0 24.99 -19.65 0zm187.74 -24.99l0 56.28c0,9.94 -2.95,17.87 -8.87,23.82 -5.9,5.94 -13.77,8.91 -23.59,8.91 -9.81,0 -17.29,-2.88 -22.47,-8.65 -5.19,-5.77 -7.79,-14.08 -7.79,-24.9l0 -55.46 25.76 0 0 55.39c0,5.32 1.89,7.99 5.69,7.99 3.66,0 5.51,-2.67 5.51,-7.99l0 -55.39 25.76 0zm139.09 24.99l0 61.81 -25.76 0 0 -86.8 33.55 0c14.73,0 26.26,3.34 34.61,10.04 9.92,8.03 14.86,18.89 14.86,32.64 0,13.15 -4.23,23.86 -12.71,32.17 -8.46,8.31 -19.37,12.47 -32.71,12.47 -1.56,0 -4.12,-0.09 -7.67,-0.26l0 -25.51 4.12 0c15.03,0 22.55,-6.29 22.55,-18.84 0,-11.83 -7.39,-17.72 -22.16,-17.72l-8.68 0zm192.86 -24.99l0 86.8 -25.77 0 0 -86.8 25.77 0zm156.07 -2.08c12.28,0 22.82,4.47 31.6,13.4 8.79,8.96 13.19,19.65 13.19,32.1 0,12.69 -4.43,23.45 -13.27,32.3 -8.85,8.87 -19.61,13.29 -32.28,13.29 -12.58,0 -23.31,-4.45 -32.21,-13.34 -8.89,-8.91 -13.33,-19.65 -13.33,-32.25 0,-12.71 4.46,-23.47 13.42,-32.27 8.96,-8.83 19.93,-13.23 32.88,-13.23zm-0.76 25.63c-5.29,0 -9.8,1.96 -13.53,5.84 -3.73,3.88 -5.6,8.59 -5.6,14.07 0,5.49 1.87,10.2 5.62,14.08 3.75,3.88 8.26,5.84 13.51,5.84 5.34,0 9.87,-1.93 13.58,-5.82 3.71,-3.86 5.55,-8.56 5.55,-14.1 0,-5.53 -1.84,-10.23 -5.55,-14.09 -3.71,-3.88 -8.24,-5.82 -13.58,-5.82z"/>
  <path class="fil0" d="M824.71 2151.91c7.24,0 13.1,5.87 13.1,13.1 0,7.24 -5.86,13.1 -13.1,13.1 -7.23,0 -13.1,-5.86 -13.1,-13.1 0,-7.23 5.87,-13.1 13.1,-13.1z"/>
  <line class="fil1 str1" x1="682.14" y1="475.09" x2="893.22" y2= "686.17" />
  <path class="fil0" d="M979.01 2151.91c7.23,0 13.1,5.87 13.1,13.1 0,7.24 -5.87,13.1 -13.1,13.1 -7.23,0 -13.1,-5.86 -13.1,-13.1 0,-7.23 5.87,-13.1 13.1,-13.1z"/>
  <path class="fil0" d="M1162.41 2151.91c7.24,0 13.1,5.87 13.1,13.1 0,7.24 -5.86,13.1 -13.1,13.1 -7.23,0 -13.1,-5.86 -13.1,-13.1 0,-7.23 5.87,-13.1 13.1,-13.1z"/>
  <path class="fil0" d="M1353.91 2148.49c7.23,0 13.1,5.87 13.1,13.1 0,7.24 -5.87,13.1 -13.1,13.1 -7.24,0 -13.1,-5.86 -13.1,-13.1 0,-7.23 5.86,-13.1 13.1,-13.1z"/>
  <path class="fil0" d="M1490.11 2148.49c7.24,0 13.1,5.87 13.1,13.1 0,7.24 -5.86,13.1 -13.1,13.1 -7.23,0 -13.1,-5.86 -13.1,-13.1 0,-7.23 5.87,-13.1 13.1,-13.1z"/>
  <line class="fil1 str1" x1="1729.69" y1="2158.53" x2="2028.2" y2= "2158.53" />
  <line class="fil1 str1" x1="333.38" y1="2158.53" x2="631.89" y2= "2158.53" />
 </g>
</svg>
